<?xml version="1.0" encoding="utf-8"?>
<!-- Generator: Adobe Illustrator 16.0.0, SVG Export Plug-In . SVG Version: 6.00 Build 0)  -->
<!DOCTYPE svg PUBLIC "-//W3C//DTD SVG 1.1//EN" "http://www.w3.org/Graphics/SVG/1.1/DTD/svg11.dtd">
<svg version="1.1" id="Layer_1" xmlns="http://www.w3.org/2000/svg" xmlns:xlink="http://www.w3.org/1999/xlink" x="0px" y="0px"
	 width="841.89px" height="595.28px" viewBox="0 0 841.89 595.28" enable-background="new 0 0 841.89 595.28" xml:space="preserve">
<g>
	<path d="M162.314,288.533c-6.375,2.512-12.103,7.081-17.385,11.355c-4.747,9.078-11.056,17.816-18.562,23.752
		c-1.402,1.109-4.491,3.56-5.708,1.029c-1.351-2.809,4.104-8.023,5.585-9.693c5.229-5.762,10.923-11.084,17.024-15.913
		c3.593-6.327,6.212-13.16,7.769-20.269c2.757-13.394-2.054-30.045-18.419-29.13c-4.491,0.341-8.897,1.404-13.048,3.149
		c-0.062,21.064-0.264,42.208,0.844,63.225c0.057,1.069-1.901,1.929-1.968,0.657c-1.104-20.953-0.905-42.037-0.844-63.035
		c-5.067,2.212-9.64,5.415-13.453,9.418c-0.925,1.027-2.067-0.246-1.167-1.249c4.147-4.359,9.117-7.853,14.622-10.28
		c0.008-2.127,0.012-4.252,0.012-6.377c0-1.062,1.968-1.919,1.968-0.658c-0.003,2.066-0.006,4.133-0.01,6.2
		c7.188-2.917,14.993-4.152,21.302-2.135c16.038,5.126,14.171,26.07,9.685,38.518c-1.083,3.005-2.376,6.105-3.845,9.202
		c4.646-3.921,9.833-7.153,15.402-9.596C163.444,286.178,163.38,288.111,162.314,288.533z M132.423,314.912
		c3.017-3.664,5.792-7.519,8.312-11.541c-4.209,3.551-8.206,7.346-11.971,11.365c-0.716,0.773-7.635,8.742-5.661,9.008
		c2.573,0.346,8.078-7.318,9.32-8.83V314.912z"/>
	<path d="M172.634,302.732c-2.059,1.297-4.397,2.084-6.821,2.293c-0.19,0.015-0.424,0.039-0.684,0.066
		c0.015,3.033-0.462,6.049-1.414,8.929c-1.529,3.548-6.038,7.392-9.547,3.675c-4.456-4.721-1.004-12.522,2.825-16.396
		c0.97-0.978,2.122,0.281,1.167,1.249c-2.516,2.545-4.491,6.433-3.926,10.067c0.394,2.525,2.412,5.901,5.361,4.152
		c3.302-1.959,3.766-7.847,3.719-11.178c0.01-0.109,0-0.219,0-0.328c-1.245,0.206-2.521,0.091-3.709-0.335
		c-1.501-0.962-0.273-2.481,0.831-3.272c2.743-1.966,4.016-0.884,4.482,1.312c2.463,0.015,4.887-0.618,7.028-1.837
		C173.172,300.4,173.727,302.082,172.634,302.732z M162.971,303.119c-0.462-0.444-1.193-0.444-1.656,0l-0.492,0.458
		c0.589-0.485,1.376-0.654,2.111-0.454L162.971,303.119z"/>
	<path d="M200.716,319.172c-4.154,0.418-5.012-3.947-4.791-8.629c-1.786,3.414-4.183,5.979-7.069,4.488
		c-4.548-2.35,0.533-14.39,1.763-17.742c0.404-1.103,2.304-1.015,1.812,0.324c-1.391,3.789-3.869,9.37-3.141,13.452
		c1.011,5.687,5.589-2.357,6.392-4.419c0.74-1.902,1.326-3.863,1.75-5.861c0.24-1.047,2.245-1.518,1.954-0.172
		c-0.064,0.324-0.165,0.754-0.292,1.256c-0.998,4.191-2.653,11.281-0.225,14.343c3.989,5.022,9.083-6.679,9.645-9.342
		c0.805-3.815,1.236-9.2-1.124-12.595c-0.643-0.931,0.972-2.399,1.604-1.491C213.711,299.568,210.736,318.162,200.716,319.172z"/>
	<path d="M234.739,314.314c-2.733,0.902-4.898,0.669-6.486-1.896c-1.388-2.242-1.123-9.476-4.476-6.868
		c-2.728,2.125-4.429,7.125-5.872,10.166c-0.974,2.049-1.907,4.121-2.77,6.219c-0.267,0.637-1.925,1.334-1.896,0.168
		c0.157-5.936,0.417-11.869,0.729-17.797c0.146-2.777,0.307-5.556,0.482-8.333c-0.02-0.114-0.012-0.231,0.024-0.341
		c0.465-7.291,1.057-14.578,1.932-21.827c0.761-6.312,1.058-14.774,4.534-20.36c3.114-5.007,7.184-1.92,7.414,2.985
		c0.62,13.193-6.144,27.918-11.995,39.289c-0.002,0.009-0.016,0.014-0.016,0.022c-0.459,6.975-0.775,13.961-0.993,20.938
		c1.915-4.542,4.177-9.239,7.402-12.561c1.199-1.229,2.714-2.496,4.375-1.355c3.592,2.468-0.136,12.205,7.418,9.727
		C235.902,312.045,235.851,313.957,234.739,314.314z M218.364,273.634c-0.678,5.625-1.214,11.266-1.648,16.933
		c4.739-11.158,14.579-36.896,7.873-37.635c-4.719-0.521-5.865,17.701-6.227,20.702H218.364z"/>
	<path d="M257.028,305.976c-1.267,2.573-5.393,10.947-9.372,8.374c-1.236-1.104-2.014-2.631-2.178-4.279
		c-0.114-0.6-0.137-3.016-1.24-3.041c-0.437-0.011-1.647,2.023-1.895,2.363c-1.545,2.116-3.141,5.508-5.577,6.772
		c-5.854,3.038-1.478-7.723-0.615-9.241c1.247-2.18,3.219-5.942,5.766-6.901c0.859-0.304,1.807-0.214,2.593,0.245
		c0.787,0.459,1.331,1.242,1.489,2.138c0.086,1.07-1.866,1.932-1.968,0.657c-0.176-2.201-2.443-0.713-3.137,0.049
		c-0.849,0.967-1.612,2.006-2.282,3.105c-0.97,1.524-3.312,4.881-3.082,6.842c0.369,3.137,3.305-1.686,4.122-2.841
		c0.936-1.515,2.018-2.935,3.231-4.237c2.401-2.248,3.746-0.77,4.408,2.041c0.431,1.842,0.75,5.072,3.375,4.228
		c0.879-0.284,1.805-1.997,2.315-2.745c0.834-1.225,1.581-2.508,2.235-3.838C255.726,304.632,257.662,304.711,257.028,305.976z"/>
	<path d="M279.58,280.369c-5.835-0.331-11.683-0.359-17.521-0.084c-0.548,2.929-1.104,5.858-1.669,8.785
		c-0.828,19.243-1.12,38.521-1.148,57.78c-0.002,1.06-1.968,1.919-1.968,0.657c0.014-9.527,0.133-19.052,0.306-28.574
		c0.103-5.897,0.24-11.795,0.412-17.692c-0.664,3.307-1.318,6.614-1.999,9.913c-0.221,1.068-2.229,1.509-1.954,0.173
		c1.504-7.33,2.965-14.668,4.384-22.014c0.13-2.953,0.292-5.901,0.465-8.851c-8.014,0.508-15.996,1.44-23.91,2.794
		c-1.343,0.228-0.759-1.755,0.308-1.936c7.848-1.34,15.762-2.265,23.707-2.77c0.035-0.564,0.057-1.128,0.096-1.692
		c0.217-5.102,0.74-10.186,1.565-15.224c0.264-1.403,0.646-5.154,2.569-5.511c4.964-0.92-0.188,18.95-0.517,20.744
		c-0.097,0.5-0.199,1-0.292,1.5c5.981-0.28,11.972-0.249,17.95,0.091C281.621,278.533,280.622,280.438,279.58,280.369z
		 M263.336,261.121c0.123-0.821,0.101-1.656-0.065-2.469c-0.143,0.417-0.245,0.848-0.359,1.272
		c-1.351,5.588-2.073,11.309-2.155,17.057C261.717,271.736,262.834,266.434,263.336,261.121z"/>
	<path d="M314.496,305.753c-2.845,4.045-5.498,8.255-7.977,12.553c-0.037,2.76-0.097,5.517-0.179,8.272
		c-0.307,10.12-0.02,21.62-3.354,31.32c-2.313,6.731-8.036,5.317-10.278-1.129c-3.369-9.705,3.292-22.344,7.565-30.697
		c1.395-2.727,2.881-5.417,4.413-8.081c0.031-4.608-0.025-9.208-0.115-13.793c-0.441,1.11-0.888,2.217-1.368,3.31
		c-0.774,1.76-2.165,6.088-4.206,6.945c-5.022,2.111-2.738-9.955-2.293-12.084c0.223-1.066,2.232-1.507,1.954-0.172
		c-0.604,2.455-0.891,4.979-0.853,7.506c0.261,4.533,1.089,2.664,2.547-0.252c1.614-3.359,3.017-6.817,4.199-10.352
		c0.25-0.698,1.868-1.296,1.896-0.167c0.127,5.282,0.156,10.569,0.112,15.855c2.019-3.354,4.147-6.646,6.392-9.837
		C313.679,303.915,315.319,304.584,314.496,305.753z M303.003,347.957c1.011-8.748,1.559-17.544,1.64-26.351
		c-0.875,1.589-1.732,3.192-2.554,4.796c-4.069,7.958-10.621,20.051-7.525,29.269c0.89,2.645,4.019,7.087,6.06,3.399
		c1.731-3.128,1.956-7.643,2.379-11.111V347.957z"/>
	<path d="M331.694,302.732c-2.059,1.297-4.397,2.084-6.821,2.293c-0.19,0.015-0.424,0.039-0.684,0.066
		c0.015,3.033-0.462,6.049-1.414,8.929c-1.529,3.548-6.038,7.392-9.547,3.675c-4.456-4.721-1.004-12.522,2.825-16.396
		c0.97-0.978,2.122,0.281,1.167,1.249c-2.516,2.545-4.491,6.433-3.926,10.067c0.394,2.525,2.412,5.901,5.361,4.152
		c3.302-1.959,3.766-7.847,3.719-11.178c0.01-0.109,0-0.219,0-0.328c-1.245,0.206-2.521,0.091-3.709-0.335
		c-1.501-0.962-0.273-2.481,0.831-3.272c2.743-1.966,4.016-0.884,4.482,1.312c2.463,0.015,4.887-0.618,7.028-1.837
		C332.231,300.4,332.786,302.082,331.694,302.732z M322.031,303.119c-0.462-0.444-1.193-0.444-1.656,0l-0.492,0.458
		c0.589-0.485,1.376-0.654,2.111-0.454L322.031,303.119z"/>
	<path d="M353.949,311.997c-0.711,2.085-1.706,5.7-4.391,6.072c-2.175,0.302-4.08-1.904-5.016-3.591
		c-1.499-2.995-2.433-6.242-2.756-9.574c-0.286,1.133-0.564,2.27-0.894,3.39c-0.822,2.798-1.931,7.8-4.812,9.358
		c-5.854,3.164-5.743-11.068-5.686-13.828c0.022-1.057,1.995-1.912,1.968-0.657c-0.049,2.19,0.044,4.382,0.283,6.56
		c0.239,2.146,1.292,9.037,3.929,4.781c2.788-4.496,3.729-10.651,4.655-15.805c0.15-0.836,1.869-1.669,1.961-0.416
		c0.208,2.884,0.598,5.754,1.166,8.591c0.333,2.26,1.022,4.453,2.042,6.499c0.49,0.847,1.55,2.386,2.551,2.574
		c2.184,0.413,2.708-2.854,3.193-4.272C352.523,310.565,354.414,310.654,353.949,311.997z"/>
	<path d="M392.083,306.348c-2.26,5.537-5.641,11.6-10.498,15.236c-5.544,4.154-13.894,2.404-14.453-5.4
		c-0.463-6.477,4.15-16.133,9.948-19.375c7.079-3.954,4.867,6.11,1.685,8.944c-1.021,0.908-2.187-0.336-1.167-1.248
		c1.684-1.498,4.61-7.909-0.323-5.788c-1.914,0.827-3.658,3.95-4.665,5.624c-2.789,4.63-6.39,13.61,0.072,16.943
		c8.244,4.254,15.141-9.248,17.597-15.258C390.721,304.944,392.631,305.027,392.083,306.348z"/>
	<path d="M411.059,305.976c-1.268,2.573-5.393,10.947-9.372,8.374c-1.236-1.104-2.014-2.631-2.178-4.279
		c-0.114-0.6-0.137-3.016-1.24-3.041c-0.437-0.011-1.647,2.023-1.895,2.363c-1.545,2.116-3.141,5.508-5.577,6.772
		c-5.854,3.038-1.478-7.723-0.615-9.241c1.247-2.18,3.219-5.942,5.766-6.901c0.859-0.304,1.807-0.214,2.593,0.245
		c0.787,0.459,1.331,1.242,1.489,2.138c0.086,1.07-1.866,1.932-1.968,0.657c-0.176-2.201-2.443-0.713-3.137,0.049
		c-0.849,0.967-1.612,2.006-2.282,3.105c-0.97,1.524-3.312,4.881-3.082,6.842c0.369,3.137,3.305-1.686,4.122-2.841
		c0.936-1.515,2.018-2.935,3.231-4.237c2.401-2.248,3.746-0.77,4.408,2.041c0.431,1.842,0.75,5.072,3.375,4.228
		c0.879-0.284,1.805-1.997,2.315-2.745c0.834-1.225,1.581-2.508,2.235-3.838C409.757,304.632,411.693,304.711,411.059,305.976z"/>
	<path d="M430.023,310.369c-0.496,1.758-1.33,4.506-3.703,3.72c-2.145-0.71-3.318-4.065-4.115-5.938
		c-0.569-1.748-1.433-3.387-2.553-4.846c-1.631-1.707-2.581-0.334-3.409,1.297c-1.434,2.834-1.983,6.021-3.062,8.988
		c-1.484,4.084-3.927,3.226-4.151-0.847c-0.096-5.072,0.311-10.14,1.212-15.132c0.158-1.089,2.152-1.528,1.953-0.172
		c-0.676,4.201-1.081,8.44-1.215,12.694c-0.013,1.069,0.228,2.254,0.133,3.305c-0.007,0.098,0.004,0.196,0.029,0.291
		c0.515-2.203,1.217-4.357,2.1-6.441c0.84-2.436,2.882-8.24,6.574-6.663c1.85,0.79,2.917,3.411,3.672,5.085
		c0.445,0.987,3.521,8.621,4.584,4.832C428.361,309.504,430.391,309.064,430.023,310.369z"/>
	<path d="M466.266,305.976c-1.268,2.573-5.393,10.947-9.371,8.374c-1.236-1.104-2.014-2.631-2.178-4.279
		c-0.115-0.6-0.137-3.016-1.24-3.041c-0.438-0.011-1.646,2.023-1.895,2.363c-1.547,2.116-3.141,5.508-5.576,6.772
		c-5.854,3.038-1.479-7.723-0.615-9.241c1.246-2.18,3.219-5.942,5.766-6.901c0.857-0.304,1.807-0.214,2.594,0.245
		c0.785,0.459,1.33,1.242,1.488,2.138c0.086,1.07-1.867,1.932-1.969,0.657c-0.176-2.201-2.443-0.713-3.137,0.049
		c-0.85,0.967-1.613,2.006-2.283,3.105c-0.969,1.524-3.311,4.881-3.08,6.842c0.367,3.137,3.305-1.686,4.121-2.841
		c0.936-1.515,2.018-2.935,3.23-4.237c2.4-2.248,3.746-0.77,4.408,2.041c0.43,1.842,0.75,5.072,3.375,4.228
		c0.879-0.284,1.805-1.997,2.314-2.745c0.834-1.225,1.58-2.508,2.234-3.838C464.965,304.632,466.9,304.711,466.266,305.976z"/>
	<path d="M485.229,310.369c-0.496,1.758-1.328,4.506-3.703,3.72c-2.145-0.71-3.316-4.065-4.115-5.938
		c-0.568-1.748-1.432-3.387-2.553-4.846c-1.631-1.707-2.58-0.334-3.408,1.297c-1.434,2.834-1.984,6.021-3.062,8.988
		c-1.484,4.084-3.926,3.226-4.15-0.847c-0.096-5.072,0.311-10.14,1.211-15.132c0.158-1.089,2.152-1.528,1.953-0.172
		c-0.676,4.201-1.08,8.44-1.215,12.694c-0.012,1.069,0.229,2.254,0.133,3.305c-0.006,0.098,0.004,0.196,0.029,0.291
		c0.516-2.203,1.217-4.357,2.1-6.441c0.84-2.436,2.883-8.24,6.574-6.663c1.85,0.79,2.916,3.411,3.672,5.085
		c0.445,0.987,3.521,8.621,4.584,4.832C483.568,309.504,485.596,309.064,485.229,310.369z"/>
	<path d="M502.082,298.622c-0.137,10.425,0.117,20.862,0.145,31.136c0.004,1.061-1.969,1.92-1.969,0.657
		c-0.023-9.363-0.09-18.721,0.057-28.079c-3.334,6.875-9.686,18.564-17.84,15.705c-0.326-0.115-0.373-0.508-0.359-0.799
		c0.371-6.992,6.701-18.634,15.17-14.75c1.084,0.496-0.246,2.221-1.232,1.77c-4.764-2.186-8.387,2.38-10.24,6.186
		c-0.545,1.116-2.596,5.258-1.432,6.02c1.73,1.135,4.881-1.514,5.971-2.511c4.574-4.19,7.541-10.403,10.059-15.999
		c0.053-2.199,0.098-4.397,0.182-6.597c0.314-8.133,0.766-16.297,1.857-24.37c0.639-4.699,1.205-10.32,3.684-14.499
		c1.102-1.86,3.227-4.009,5.484-2.501c2.568,1.714,1.867,7.027,1.67,9.53C512.236,272.793,507.682,286.533,502.082,298.622z
		 M502.158,293.931c4.633-10.545,7.689-21.714,9.074-33.147c0.152-1.513,1.211-9.081-1.559-9.358
		c-2.869-0.287-4.113,8.461-4.438,10.168C503.332,272.271,502.303,283.086,502.158,293.931z"/>
	<path d="M541.186,298.622c-0.135,10.425,0.119,20.862,0.146,31.136c0.002,1.061-1.969,1.92-1.969,0.657
		c-0.025-9.363-0.09-18.721,0.055-28.079c-3.334,6.875-9.686,18.564-17.838,15.705c-0.328-0.115-0.375-0.508-0.361-0.799
		c0.373-6.992,6.701-18.634,15.172-14.75c1.084,0.496-0.246,2.221-1.232,1.77c-4.766-2.186-8.389,2.38-10.242,6.186
		c-0.543,1.116-2.596,5.258-1.43,6.02c1.73,1.135,4.879-1.514,5.969-2.511c4.574-4.19,7.541-10.403,10.061-15.999
		c0.053-2.199,0.098-4.397,0.182-6.597c0.312-8.133,0.764-16.297,1.857-24.37c0.637-4.699,1.203-10.32,3.682-14.499
		c1.104-1.86,3.229-4.009,5.486-2.501c2.566,1.714,1.867,7.027,1.67,9.53C551.34,272.793,546.787,286.533,541.186,298.622z
		 M541.264,293.931c4.631-10.545,7.689-21.714,9.074-33.147c0.152-1.513,1.209-9.081-1.561-9.358
		c-2.867-0.287-4.111,8.461-4.436,10.168C542.436,272.271,541.406,283.086,541.264,293.931z"/>
	<path d="M564.957,302.732c-2.059,1.297-4.396,2.084-6.822,2.293c-0.189,0.015-0.424,0.039-0.684,0.066
		c0.016,3.033-0.461,6.049-1.414,8.929c-1.527,3.548-6.037,7.392-9.547,3.675c-4.455-4.721-1.004-12.522,2.824-16.396
		c0.971-0.978,2.123,0.281,1.168,1.249c-2.516,2.545-4.492,6.433-3.926,10.067c0.393,2.525,2.412,5.901,5.361,4.152
		c3.303-1.959,3.766-7.847,3.719-11.178c0.01-0.109,0-0.219,0-0.328c-1.244,0.206-2.521,0.091-3.709-0.335
		c-1.502-0.962-0.273-2.481,0.83-3.272c2.744-1.966,4.016-0.884,4.482,1.312c2.463,0.015,4.887-0.618,7.027-1.837
		C565.494,300.4,566.049,302.082,564.957,302.732z M555.295,303.119c-0.463-0.444-1.195-0.444-1.658,0l-0.49,0.458
		c0.588-0.485,1.375-0.654,2.111-0.454L555.295,303.119z"/>
	<path d="M593.977,309.537c-0.41,4.217-8.25,14.545-12.279,8.633c-1.838-2.695-1.342-7.083-1.129-10.145
		c0.178-2.6,0.506-5.187,0.986-7.746c0.203-1.076,2.207-1.517,1.953-0.173c-0.918,4.243-1.262,8.591-1.021,12.926
		c0.312,3.609,1.447,6.11,5.395,3.507c2.314-1.559,3.826-4.055,4.135-6.826C592.125,308.605,594.104,308.168,593.977,309.537z
		 M580.494,294.775c-0.1-0.218-0.094-0.47,0.018-0.683c0.816-1.526,2.176-3.541,4.07-3.644c1.373-0.075,0.793,1.876-0.307,1.936
		c-0.547,0.031-0.986,0.64-1.289,1.04c-0.201,0.268-0.389,0.542-0.564,0.833c-0.068,0.114-0.318,0.567-0.098,0.156
		c-0.215,0.521-0.742,0.844-1.303,0.797C580.787,295.154,580.592,294.994,580.494,294.775z"/>
	<path d="M617.631,280.369c-5.834-0.331-11.682-0.359-17.52-0.084c-0.549,2.929-1.105,5.858-1.67,8.785
		c-0.828,19.243-1.119,38.521-1.148,57.78c-0.002,1.06-1.969,1.919-1.969,0.657c0.016-9.527,0.135-19.052,0.307-28.574
		c0.102-5.897,0.24-11.795,0.412-17.692c-0.664,3.307-1.318,6.614-2,9.913c-0.221,1.068-2.229,1.509-1.953,0.173
		c1.504-7.33,2.965-14.668,4.385-22.014c0.129-2.953,0.291-5.901,0.465-8.851c-8.014,0.508-15.996,1.44-23.91,2.794
		c-1.344,0.228-0.76-1.755,0.307-1.936c7.848-1.34,15.762-2.265,23.707-2.77c0.035-0.564,0.059-1.128,0.096-1.692
		c0.217-5.102,0.74-10.186,1.566-15.224c0.264-1.403,0.645-5.154,2.568-5.511c4.965-0.92-0.188,18.95-0.516,20.744
		c-0.098,0.5-0.201,1-0.293,1.5c5.98-0.28,11.973-0.249,17.949,0.091C619.672,278.533,618.674,280.438,617.631,280.369z
		 M601.389,261.121c0.123-0.821,0.1-1.656-0.066-2.469c-0.143,0.417-0.244,0.848-0.359,1.272c-1.35,5.588-2.072,11.309-2.154,17.057
		C599.768,271.736,600.885,266.434,601.389,261.121z"/>
	<path d="M647.307,319.172c-4.152,0.418-5.012-3.947-4.791-8.629c-1.785,3.414-4.182,5.979-7.068,4.488
		c-4.547-2.35,0.533-14.39,1.764-17.742c0.404-1.103,2.303-1.015,1.812,0.324c-1.391,3.789-3.869,9.37-3.141,13.452
		c1.01,5.687,5.588-2.357,6.393-4.419c0.74-1.902,1.324-3.863,1.748-5.861c0.24-1.047,2.246-1.518,1.953-0.172
		c-0.062,0.324-0.164,0.754-0.291,1.256c-0.998,4.191-2.652,11.281-0.225,14.343c3.99,5.022,9.084-6.679,9.645-9.342
		c0.805-3.815,1.236-9.2-1.123-12.595c-0.645-0.931,0.971-2.399,1.604-1.491C660.303,299.568,657.328,318.162,647.307,319.172z"/>
	<path d="M674.844,305.83c-1.545,3.525-5.75,14.732-11.605,12.176c-3.754-1.641-4.613-6.009-4.143-9.968
		c-0.055-0.227-0.021-0.465,0.09-0.669c0.207-1.342,0.576-2.654,1.105-3.904c0.625-1.447,4.998-9.161,7.33-5.891
		c1.148,1.604-0.279,4.574-1.193,5.898c-1.434,1.945-3.291,3.54-5.43,4.666c-0.254,3.188,0.488,7.119,3.537,8.121
		c4.01,1.316,7.439-8.33,8.498-10.75C673.494,304.445,675.412,304.526,674.844,305.83z M661.439,305.59
		c-0.029,0.097-0.053,0.205-0.078,0.311c0.705-0.457,1.369-0.971,1.988-1.536c0.482-0.453,3.982-4.977,2.525-5.5
		c-1.57-0.563-4.133,5.723-4.432,6.726H661.439z"/>
	<path d="M682.873,262.498c-0.92,11.291-3.664,22.36-8.125,32.774c0.031,0.739,0.061,1.479,0.094,2.214
		c0.271,5.986-0.703,20.381,7.227,21.78c1.266,0.224,0.264,2.104-0.793,1.917c-8.348-1.469-7.865-13.108-8.232-19.681
		c-0.039-0.722-0.062-1.441-0.1-2.171c-0.506,1.074-1.006,2.151-1.543,3.2c-0.523,1.021-2.461,0.942-1.812-0.325
		c1.121-2.191,2.182-4.451,3.174-6.759c-0.344-8.393-0.422-16.812,0.016-25.193c0.258-4.952-0.281-15.919,4.586-19.225
		C683.631,246.775,683.076,259.709,682.873,262.498z M677.186,254.001c-1.76,2.977-1.795,7.623-2.102,10.984
		c-0.697,8.632-0.863,17.298-0.496,25.95c3.73-9.57,5.904-19.676,6.436-29.934C681.1,259.082,680.561,248.288,677.186,254.001z"/>
	<path d="M695.822,262.498c-0.92,11.291-3.664,22.36-8.125,32.774c0.031,0.739,0.061,1.479,0.094,2.214
		c0.271,5.986-0.703,20.381,7.227,21.78c1.266,0.224,0.264,2.104-0.793,1.917c-8.348-1.469-7.865-13.108-8.232-19.681
		c-0.039-0.722-0.062-1.441-0.1-2.171c-0.506,1.074-1.006,2.151-1.543,3.2c-0.523,1.021-2.461,0.942-1.812-0.325
		c1.121-2.191,2.182-4.451,3.174-6.759c-0.344-8.393-0.422-16.812,0.016-25.193c0.258-4.952-0.281-15.919,4.586-19.225
		C696.58,246.775,696.025,259.709,695.822,262.498z M690.135,254.001c-1.76,2.977-1.795,7.623-2.102,10.984
		c-0.697,8.632-0.863,17.298-0.496,25.95c3.73-9.57,5.904-19.676,6.436-29.934C694.049,259.082,693.51,248.288,690.135,254.001z"/>
	<path d="M709.318,315.348v8.113h-7.82v-8.113H709.318z"/>
</g>
</svg>
