<svg xmlns="http://www.w3.org/2000/svg" width="841.89" height="595.28"><path d="M162.314 288.533c-6.375 2.512-12.103 7.081-17.385 11.355-4.747 9.078-11.056 17.816-18.562 23.752-1.402 1.109-4.491 3.56-5.708 1.029-1.351-2.809 4.104-8.023 5.585-9.693a141.982 141.982 0 0 1 17.024-15.913 72.423 72.423 0 0 0 7.769-20.269c2.757-13.394-2.054-30.045-18.419-29.13a41.844 41.844 0 0 0-13.048 3.149c-.062 21.064-.264 42.208.844 63.225.057 1.069-1.901 1.929-1.968.657-1.104-20.953-.905-42.037-.844-63.035a41.526 41.526 0 0 0-13.453 9.418c-.925 1.027-2.067-.246-1.167-1.249a45.538 45.538 0 0 1 14.622-10.28c.008-2.127.012-4.252.012-6.377 0-1.062 1.968-1.919 1.968-.658l-.01 6.2c7.188-2.917 14.993-4.152 21.302-2.135 16.038 5.126 14.171 26.07 9.685 38.518a103.41 103.41 0 0 1-3.845 9.202 63.32 63.32 0 0 1 15.402-9.596c1.326-.525 1.262 1.408.196 1.83zm-29.891 26.379a110.199 110.199 0 0 0 8.312-11.541 140.908 140.908 0 0 0-11.971 11.365c-.716.773-7.635 8.742-5.661 9.008 2.573.346 8.078-7.318 9.32-8.83v-.002zM172.634 302.732a15.256 15.256 0 0 1-6.821 2.293c-.19.015-.424.039-.684.066a28.01 28.01 0 0 1-1.414 8.929c-1.529 3.548-6.038 7.392-9.547 3.675-4.456-4.721-1.004-12.522 2.825-16.396.97-.978 2.122.281 1.167 1.249-2.516 2.545-4.491 6.433-3.926 10.067.394 2.525 2.412 5.901 5.361 4.152 3.302-1.959 3.766-7.847 3.719-11.178.01-.109 0-.219 0-.328a7.404 7.404 0 0 1-3.709-.335c-1.501-.962-.273-2.481.831-3.272 2.743-1.966 4.016-.884 4.482 1.312a14.031 14.031 0 0 0 7.028-1.837c1.226-.729 1.781.953.688 1.603zm-9.663.387a1.196 1.196 0 0 0-1.656 0l-.492.458a2.35 2.35 0 0 1 2.111-.454l.037-.004zM200.716 319.172c-4.154.418-5.012-3.947-4.791-8.629-1.786 3.414-4.183 5.979-7.069 4.488-4.548-2.35.533-14.39 1.763-17.742.404-1.103 2.304-1.015 1.812.324-1.391 3.789-3.869 9.37-3.141 13.452 1.011 5.687 5.589-2.357 6.392-4.419a37.824 37.824 0 0 0 1.75-5.861c.24-1.047 2.245-1.518 1.954-.172-.064.324-.165.754-.292 1.256-.998 4.191-2.653 11.281-.225 14.343 3.989 5.022 9.083-6.679 9.645-9.342.805-3.815 1.236-9.2-1.124-12.595-.643-.931.972-2.399 1.604-1.491 4.717 6.784 1.742 25.378-8.278 26.388zM234.739 314.314c-2.733.902-4.898.669-6.486-1.896-1.388-2.242-1.123-9.476-4.476-6.868-2.728 2.125-4.429 7.125-5.872 10.166a127.355 127.355 0 0 0-2.77 6.219c-.267.637-1.925 1.334-1.896.168a681.45 681.45 0 0 1 .729-17.797c.146-2.777.307-5.556.482-8.333a.704.704 0 0 1 .024-.341c.465-7.291 1.057-14.578 1.932-21.827.761-6.312 1.058-14.774 4.534-20.36 3.114-5.007 7.184-1.92 7.414 2.985.62 13.193-6.144 27.918-11.995 39.289-.002.009-.016.014-.016.022a608.215 608.215 0 0 0-.993 20.938c1.915-4.542 4.177-9.239 7.402-12.561 1.199-1.229 2.714-2.496 4.375-1.355 3.592 2.468-.136 12.205 7.418 9.727 1.357-.445 1.306 1.467.194 1.824zm-16.375-40.68a390.782 390.782 0 0 0-1.648 16.933c4.739-11.158 14.579-36.896 7.873-37.635-4.719-.521-5.865 17.701-6.227 20.702h.002z"/><path d="M257.028 305.976c-1.267 2.573-5.393 10.947-9.372 8.374a6.618 6.618 0 0 1-2.178-4.279c-.114-.6-.137-3.016-1.24-3.041-.437-.011-1.647 2.023-1.895 2.363-1.545 2.116-3.141 5.508-5.577 6.772-5.854 3.038-1.478-7.723-.615-9.241 1.247-2.18 3.219-5.942 5.766-6.901a3.094 3.094 0 0 1 4.082 2.383c.086 1.07-1.866 1.932-1.968.657-.176-2.201-2.443-.713-3.137.049a22.296 22.296 0 0 0-2.282 3.105c-.97 1.524-3.312 4.881-3.082 6.842.369 3.137 3.305-1.686 4.122-2.841a27.15 27.15 0 0 1 3.231-4.237c2.401-2.248 3.746-.77 4.408 2.041.431 1.842.75 5.072 3.375 4.228.879-.284 1.805-1.997 2.315-2.745a31.592 31.592 0 0 0 2.235-3.838c.51-1.035 2.446-.956 1.812.309z"/><path d="M279.58 280.369a168.974 168.974 0 0 0-17.521-.084c-.548 2.929-1.104 5.858-1.669 8.785-.828 19.243-1.12 38.521-1.148 57.78-.002 1.06-1.968 1.919-1.968.657.014-9.527.133-19.052.306-28.574.103-5.897.24-11.795.412-17.692-.664 3.307-1.318 6.614-1.999 9.913-.221 1.068-2.229 1.509-1.954.173 1.504-7.33 2.965-14.668 4.384-22.014.13-2.953.292-5.901.465-8.851a226.909 226.909 0 0 0-23.91 2.794c-1.343.228-.759-1.755.308-1.936a226.062 226.062 0 0 1 23.707-2.77c.035-.564.057-1.128.096-1.692a127.82 127.82 0 0 1 1.565-15.224c.264-1.403.646-5.154 2.569-5.511 4.964-.92-.188 18.95-.517 20.744-.097.5-.199 1-.292 1.5 5.981-.28 11.972-.249 17.95.091 1.257.075.258 1.98-.784 1.911zm-16.244-19.248a7.087 7.087 0 0 0-.065-2.469c-.143.417-.245.848-.359 1.272a77.273 77.273 0 0 0-2.155 17.057c.96-5.245 2.077-10.547 2.579-15.86zM314.496 305.753c-2.845 4.045-5.498 8.255-7.977 12.553-.037 2.76-.097 5.517-.179 8.272-.307 10.12-.02 21.62-3.354 31.32-2.313 6.731-8.036 5.317-10.278-1.129-3.369-9.705 3.292-22.344 7.565-30.697a187.878 187.878 0 0 1 4.413-8.081c.031-4.608-.025-9.208-.115-13.793a100.53 100.53 0 0 1-1.368 3.31c-.774 1.76-2.165 6.088-4.206 6.945-5.022 2.111-2.738-9.955-2.293-12.084.223-1.066 2.232-1.507 1.954-.172a29.567 29.567 0 0 0-.853 7.506c.261 4.533 1.089 2.664 2.547-.252a89.264 89.264 0 0 0 4.199-10.352c.25-.698 1.868-1.296 1.896-.167a490.01 490.01 0 0 1 .112 15.855 164.88 164.88 0 0 1 6.392-9.837c.728-1.035 2.368-.366 1.545.803zm-11.493 42.204a249.518 249.518 0 0 0 1.64-26.351 182.832 182.832 0 0 0-2.554 4.796c-4.069 7.958-10.621 20.051-7.525 29.269.89 2.645 4.019 7.087 6.06 3.399 1.731-3.128 1.956-7.643 2.379-11.111v-.002z"/><path d="M331.694 302.732a15.256 15.256 0 0 1-6.821 2.293c-.19.015-.424.039-.684.066a28.01 28.01 0 0 1-1.414 8.929c-1.529 3.548-6.038 7.392-9.547 3.675-4.456-4.721-1.004-12.522 2.825-16.396.97-.978 2.122.281 1.167 1.249-2.516 2.545-4.491 6.433-3.926 10.067.394 2.525 2.412 5.901 5.361 4.152 3.302-1.959 3.766-7.847 3.719-11.178.01-.109 0-.219 0-.328a7.404 7.404 0 0 1-3.709-.335c-1.501-.962-.273-2.481.831-3.272 2.743-1.966 4.016-.884 4.482 1.312a14.031 14.031 0 0 0 7.028-1.837c1.225-.729 1.78.953.688 1.603zm-9.663.387a1.196 1.196 0 0 0-1.656 0l-.492.458a2.35 2.35 0 0 1 2.111-.454l.037-.004z"/><path d="M353.949 311.997c-.711 2.085-1.706 5.7-4.391 6.072-2.175.302-4.08-1.904-5.016-3.591a27.275 27.275 0 0 1-2.756-9.574c-.286 1.133-.564 2.27-.894 3.39-.822 2.798-1.931 7.8-4.812 9.358-5.854 3.164-5.743-11.068-5.686-13.828.022-1.057 1.995-1.912 1.968-.657a49.91 49.91 0 0 0 .283 6.56c.239 2.146 1.292 9.037 3.929 4.781 2.788-4.496 3.729-10.651 4.655-15.805.15-.836 1.869-1.669 1.961-.416a69.08 69.08 0 0 0 1.166 8.591 21.633 21.633 0 0 0 2.042 6.499c.49.847 1.55 2.386 2.551 2.574 2.184.413 2.708-2.854 3.193-4.272.381-1.114 2.272-1.025 1.807.318zM392.083 306.348c-2.26 5.537-5.641 11.6-10.498 15.236-5.544 4.154-13.894 2.404-14.453-5.4-.463-6.477 4.15-16.133 9.948-19.375 7.079-3.954 4.867 6.11 1.685 8.944-1.021.908-2.187-.336-1.167-1.248 1.684-1.498 4.61-7.909-.323-5.788-1.914.827-3.658 3.95-4.665 5.624-2.789 4.63-6.39 13.61.072 16.943 8.244 4.254 15.141-9.248 17.597-15.258.442-1.082 2.352-.999 1.804.322z"/><path d="M411.059 305.976c-1.268 2.573-5.393 10.947-9.372 8.374a6.618 6.618 0 0 1-2.178-4.279c-.114-.6-.137-3.016-1.24-3.041-.437-.011-1.647 2.023-1.895 2.363-1.545 2.116-3.141 5.508-5.577 6.772-5.854 3.038-1.478-7.723-.615-9.241 1.247-2.18 3.219-5.942 5.766-6.901a3.094 3.094 0 0 1 4.082 2.383c.086 1.07-1.866 1.932-1.968.657-.176-2.201-2.443-.713-3.137.049a22.296 22.296 0 0 0-2.282 3.105c-.97 1.524-3.312 4.881-3.082 6.842.369 3.137 3.305-1.686 4.122-2.841a27.15 27.15 0 0 1 3.231-4.237c2.401-2.248 3.746-.77 4.408 2.041.431 1.842.75 5.072 3.375 4.228.879-.284 1.805-1.997 2.315-2.745a31.592 31.592 0 0 0 2.235-3.838c.51-1.035 2.446-.956 1.812.309z"/><path d="M430.023 310.369c-.496 1.758-1.33 4.506-3.703 3.72-2.145-.71-3.318-4.065-4.115-5.938a16.19 16.19 0 0 0-2.553-4.846c-1.631-1.707-2.581-.334-3.409 1.297-1.434 2.834-1.983 6.021-3.062 8.988-1.484 4.084-3.927 3.226-4.151-.847a76.987 76.987 0 0 1 1.212-15.132c.158-1.089 2.152-1.528 1.953-.172a99.636 99.636 0 0 0-1.215 12.694c-.013 1.069.228 2.254.133 3.305a.893.893 0 0 0 .029.291 39.629 39.629 0 0 1 2.1-6.441c.84-2.436 2.882-8.24 6.574-6.663 1.85.79 2.917 3.411 3.672 5.085.445.987 3.521 8.621 4.584 4.832.289-1.038 2.319-1.478 1.951-.173zM466.266 305.976c-1.268 2.573-5.393 10.947-9.371 8.374a6.618 6.618 0 0 1-2.178-4.279c-.115-.6-.137-3.016-1.24-3.041-.438-.011-1.646 2.023-1.895 2.363-1.547 2.116-3.141 5.508-5.576 6.772-5.854 3.038-1.479-7.723-.615-9.241 1.246-2.18 3.219-5.942 5.766-6.901a3.097 3.097 0 0 1 4.082 2.383c.086 1.07-1.867 1.932-1.969.657-.176-2.201-2.443-.713-3.137.049a22.223 22.223 0 0 0-2.283 3.105c-.969 1.524-3.311 4.881-3.08 6.842.367 3.137 3.305-1.686 4.121-2.841a27.205 27.205 0 0 1 3.23-4.237c2.4-2.248 3.746-.77 4.408 2.041.43 1.842.75 5.072 3.375 4.228.879-.284 1.805-1.997 2.314-2.745a31.585 31.585 0 0 0 2.234-3.838c.513-1.035 2.448-.956 1.814.309z"/><path d="M485.229 310.369c-.496 1.758-1.328 4.506-3.703 3.72-2.145-.71-3.316-4.065-4.115-5.938a16.144 16.144 0 0 0-2.553-4.846c-1.631-1.707-2.58-.334-3.408 1.297-1.434 2.834-1.984 6.021-3.062 8.988-1.484 4.084-3.926 3.226-4.15-.847a77.063 77.063 0 0 1 1.211-15.132c.158-1.089 2.152-1.528 1.953-.172a99.818 99.818 0 0 0-1.215 12.694c-.012 1.069.229 2.254.133 3.305a.921.921 0 0 0 .029.291 39.726 39.726 0 0 1 2.1-6.441c.84-2.436 2.883-8.24 6.574-6.663 1.85.79 2.916 3.411 3.672 5.085.445.987 3.521 8.621 4.584 4.832.289-1.038 2.317-1.478 1.95-.173z"/><path d="M502.082 298.622c-.137 10.425.117 20.862.145 31.136.004 1.061-1.969 1.92-1.969.657-.023-9.363-.09-18.721.057-28.079-3.334 6.875-9.686 18.564-17.84 15.705-.326-.115-.373-.508-.359-.799.371-6.992 6.701-18.634 15.17-14.75 1.084.496-.246 2.221-1.232 1.77-4.764-2.186-8.387 2.38-10.24 6.186-.545 1.116-2.596 5.258-1.432 6.02 1.73 1.135 4.881-1.514 5.971-2.511 4.574-4.19 7.541-10.403 10.059-15.999.053-2.199.098-4.397.182-6.597.314-8.133.766-16.297 1.857-24.37.639-4.699 1.205-10.32 3.684-14.499 1.102-1.86 3.227-4.009 5.484-2.501 2.568 1.714 1.867 7.027 1.67 9.53-1.053 13.272-5.607 27.012-11.207 39.101zm.076-4.691a117.55 117.55 0 0 0 9.074-33.147c.152-1.513 1.211-9.081-1.559-9.358-2.869-.287-4.113 8.461-4.438 10.168a199.49 199.49 0 0 0-3.077 32.337zM541.186 298.622c-.135 10.425.119 20.862.146 31.136.002 1.061-1.969 1.92-1.969.657-.025-9.363-.09-18.721.055-28.079-3.334 6.875-9.686 18.564-17.838 15.705-.328-.115-.375-.508-.361-.799.373-6.992 6.701-18.634 15.172-14.75 1.084.496-.246 2.221-1.232 1.77-4.766-2.186-8.389 2.38-10.242 6.186-.543 1.116-2.596 5.258-1.43 6.02 1.73 1.135 4.879-1.514 5.969-2.511 4.574-4.19 7.541-10.403 10.061-15.999.053-2.199.098-4.397.182-6.597.312-8.133.764-16.297 1.857-24.37.637-4.699 1.203-10.32 3.682-14.499 1.104-1.86 3.229-4.009 5.486-2.501 2.566 1.714 1.867 7.027 1.67 9.53-1.054 13.272-5.607 27.012-11.208 39.101zm.078-4.691a117.616 117.616 0 0 0 9.074-33.147c.152-1.513 1.209-9.081-1.561-9.358-2.867-.287-4.111 8.461-4.436 10.168a198.931 198.931 0 0 0-3.077 32.337z"/><path d="M564.957 302.732a15.252 15.252 0 0 1-6.822 2.293c-.189.015-.424.039-.684.066a27.954 27.954 0 0 1-1.414 8.929c-1.527 3.548-6.037 7.392-9.547 3.675-4.455-4.721-1.004-12.522 2.824-16.396.971-.978 2.123.281 1.168 1.249-2.516 2.545-4.492 6.433-3.926 10.067.393 2.525 2.412 5.901 5.361 4.152 3.303-1.959 3.766-7.847 3.719-11.178.01-.109 0-.219 0-.328a7.405 7.405 0 0 1-3.709-.335c-1.502-.962-.273-2.481.83-3.272 2.744-1.966 4.016-.884 4.482 1.312a14.025 14.025 0 0 0 7.027-1.837c1.228-.729 1.783.953.691 1.603zm-9.662.387a1.198 1.198 0 0 0-1.658 0l-.49.458a2.35 2.35 0 0 1 2.111-.454l.037-.004zM593.977 309.537c-.41 4.217-8.25 14.545-12.279 8.633-1.838-2.695-1.342-7.083-1.129-10.145.178-2.6.506-5.187.986-7.746.203-1.076 2.207-1.517 1.953-.173a48.42 48.42 0 0 0-1.021 12.926c.312 3.609 1.447 6.11 5.395 3.507a9.501 9.501 0 0 0 4.135-6.826c.108-1.108 2.087-1.545 1.96-.176zm-13.483-14.762a.774.774 0 0 1 .018-.683c.816-1.526 2.176-3.541 4.07-3.644 1.373-.075.793 1.876-.307 1.936-.547.031-.986.64-1.289 1.04a9.805 9.805 0 0 0-.564.833c-.068.114-.318.567-.098.156a1.294 1.294 0 0 1-1.303.797.773.773 0 0 1-.527-.435z"/><path d="M617.631 280.369a168.954 168.954 0 0 0-17.52-.084c-.549 2.929-1.105 5.858-1.67 8.785-.828 19.243-1.119 38.521-1.148 57.78-.002 1.06-1.969 1.919-1.969.657.016-9.527.135-19.052.307-28.574.102-5.897.24-11.795.412-17.692-.664 3.307-1.318 6.614-2 9.913-.221 1.068-2.229 1.509-1.953.173 1.504-7.33 2.965-14.668 4.385-22.014.129-2.953.291-5.901.465-8.851a226.909 226.909 0 0 0-23.91 2.794c-1.344.228-.76-1.755.307-1.936a226.062 226.062 0 0 1 23.707-2.77c.035-.564.059-1.128.096-1.692.217-5.102.74-10.186 1.566-15.224.264-1.403.645-5.154 2.568-5.511 4.965-.92-.188 18.95-.516 20.744-.098.5-.201 1-.293 1.5 5.98-.28 11.973-.249 17.949.091 1.258.075.26 1.98-.783 1.911zm-16.242-19.248c.123-.821.1-1.656-.066-2.469-.143.417-.244.848-.359 1.272a77.331 77.331 0 0 0-2.154 17.057c.958-5.245 2.075-10.547 2.579-15.86zM647.307 319.172c-4.152.418-5.012-3.947-4.791-8.629-1.785 3.414-4.182 5.979-7.068 4.488-4.547-2.35.533-14.39 1.764-17.742.404-1.103 2.303-1.015 1.812.324-1.391 3.789-3.869 9.37-3.141 13.452 1.01 5.687 5.588-2.357 6.393-4.419a37.817 37.817 0 0 0 1.748-5.861c.24-1.047 2.246-1.518 1.953-.172-.062.324-.164.754-.291 1.256-.998 4.191-2.652 11.281-.225 14.343 3.99 5.022 9.084-6.679 9.645-9.342.805-3.815 1.236-9.2-1.123-12.595-.645-.931.971-2.399 1.604-1.491 4.716 6.784 1.741 25.378-8.28 26.388zM674.844 305.83c-1.545 3.525-5.75 14.732-11.605 12.176-3.754-1.641-4.613-6.009-4.143-9.968a.938.938 0 0 1 .09-.669 16.449 16.449 0 0 1 1.105-3.904c.625-1.447 4.998-9.161 7.33-5.891 1.148 1.604-.279 4.574-1.193 5.898a16.013 16.013 0 0 1-5.43 4.666c-.254 3.188.488 7.119 3.537 8.121 4.01 1.316 7.439-8.33 8.498-10.75.461-1.064 2.379-.983 1.811.321zm-13.405-.24c-.029.097-.053.205-.078.311a15.266 15.266 0 0 0 1.988-1.536c.482-.453 3.982-4.977 2.525-5.5-1.57-.563-4.133 5.723-4.432 6.726h-.003z"/><path d="M682.873 262.498a104.865 104.865 0 0 1-8.125 32.774c.031.739.061 1.479.094 2.214.271 5.986-.703 20.381 7.227 21.78 1.266.224.264 2.104-.793 1.917-8.348-1.469-7.865-13.108-8.232-19.681-.039-.722-.062-1.441-.1-2.171-.506 1.074-1.006 2.151-1.543 3.2-.523 1.021-2.461.942-1.812-.325a111.658 111.658 0 0 0 3.174-6.759c-.344-8.393-.422-16.812.016-25.193.258-4.952-.281-15.919 4.586-19.225 6.266-4.254 5.711 8.68 5.508 11.469zm-5.687-8.497c-1.76 2.977-1.795 7.623-2.102 10.984a211.205 211.205 0 0 0-.496 25.95 96.142 96.142 0 0 0 6.436-29.934c.076-1.919-.463-12.713-3.838-7z"/><path d="M695.822 262.498a104.865 104.865 0 0 1-8.125 32.774c.031.739.061 1.479.094 2.214.271 5.986-.703 20.381 7.227 21.78 1.266.224.264 2.104-.793 1.917-8.348-1.469-7.865-13.108-8.232-19.681-.039-.722-.062-1.441-.1-2.171-.506 1.074-1.006 2.151-1.543 3.2-.523 1.021-2.461.942-1.812-.325a111.658 111.658 0 0 0 3.174-6.759c-.344-8.393-.422-16.812.016-25.193.258-4.952-.281-15.919 4.586-19.225 6.266-4.254 5.711 8.68 5.508 11.469zm-5.687-8.497c-1.76 2.977-1.795 7.623-2.102 10.984a211.205 211.205 0 0 0-.496 25.95 96.142 96.142 0 0 0 6.436-29.934c.076-1.919-.463-12.713-3.838-7zM709.318 315.348v8.113h-7.82v-8.113h7.82z"/></svg>